<svg width="384" height="118" viewBox="0 0 384 118" fill="none" xmlns="http://www.w3.org/2000/svg">
    <path d="M357.323 48.3587C356.966 48.7085 356.6 49.0399 356.224 49.3713L373.793 75.7347L367.11 74.8418C364.949 74.5472 363.045 73.2677 361.956 71.3623L351.473 52.9705C351.061 53.2374 350.64 53.5044 350.209 53.7529L367.028 84.4979L360.344 83.1448C358.156 82.7029 356.307 81.2393 355.373 79.1958L344.881 56.3948C344.423 56.5881 343.956 56.763 343.489 56.9287L354.476 81.9481L349.376 80.9171C346.978 80.4293 345 78.7171 344.167 76.3974L337.758 58.5212C337.273 58.6132 336.779 58.7053 336.293 58.7789L343.38 79.7021L339.562 78.9288C336.943 78.3949 334.856 76.4158 334.179 73.8292L330.526 59.9572C330.059 60.086 329.592 60.2241 329.134 60.3806L333.364 77.6862L330.626 77.1338C327.788 76.5631 325.6 74.2987 325.106 71.4267L323.595 62.6358L320.986 68.7204C320.693 69.4016 320.766 70.1748 321.169 70.7915L329.216 82.9791C329.326 83.1448 329.39 83.3381 329.409 83.5406L329.564 85.8511L334.636 90.9507H346.566V96.1884L344.03 93.6294H341.228L343.883 96.308L340.981 99.2261V96.308L338.317 93.6294H335.753L333.089 96.308V98.6093L329.995 95.4888L332.686 92.8561L327.944 88.0879L326.241 88.2812C325.975 88.3088 325.701 88.2444 325.472 88.0971L315.52 81.4418L322.67 91.1624L334.06 106.636H329.253C326.525 106.636 324.053 105.044 322.899 102.558L318.724 93.5189C318.331 93.703 317.928 93.8779 317.525 94.0344L324.236 111.036H321.92C318.532 111.036 315.639 108.606 315.026 105.255L313.213 95.2771C312.819 95.3507 312.426 95.4151 312.023 95.4612L313.533 107.382C313.826 109.674 312.984 111.957 311.272 113.503L309.13 115.445L306.987 113.503C305.284 111.957 304.433 109.665 304.726 107.382L306.237 95.4612C305.834 95.4151 305.44 95.3507 305.046 95.2771L303.234 105.255C302.629 108.606 299.727 111.036 296.34 111.036H294.023L300.734 94.0344C300.331 93.8779 299.929 93.703 299.535 93.5189L295.36 102.558C294.216 105.044 291.735 106.636 289.006 106.636H284.2L295.589 91.1624L302.739 81.451L292.788 88.0971C292.559 88.2444 292.293 88.318 292.018 88.2812L290.316 88.0879L285.573 92.8561L288.265 95.4888L285.17 98.6093V96.308L282.506 93.6294H279.943L277.278 96.308V99.2261L274.376 96.308L277.031 93.6294H274.23L271.694 96.1884V90.9507H283.623L288.695 85.8511L288.86 83.5406C288.878 83.3381 288.942 83.1448 289.052 82.9791L297.1 70.7915C297.502 70.1748 297.576 69.4016 297.283 68.7204L294.664 62.6266L293.154 71.4267C292.659 74.2895 290.471 76.5631 287.633 77.1338L284.905 77.6862L289.135 60.3806C288.677 60.2241 288.21 60.086 287.734 59.9572L284.081 73.8384C283.394 76.4343 281.307 78.4134 278.688 78.9472L274.871 79.7205L281.966 58.7973C281.472 58.7237 280.986 58.6316 280.501 58.5396L274.092 76.4251C273.259 78.7447 271.291 80.4569 268.883 80.9447L263.784 81.9757L274.77 56.9471C274.303 56.7814 273.845 56.6065 273.378 56.4132L262.886 79.205C261.953 81.2393 260.103 82.7121 257.915 83.154L251.223 84.5071L268.05 53.7621C267.62 53.5136 267.199 53.2558 266.787 52.9797L256.295 71.3807C255.214 73.2861 253.31 74.5656 251.14 74.8602L244.457 75.7531L262.026 49.3805C261.65 49.0491 261.284 48.7177 260.927 48.368L251.03 62.6727C249.813 64.4308 247.863 65.5354 245.739 65.6827L239.174 66.1154L256.926 43.9403C256.615 43.5445 256.322 43.1487 256.029 42.7436L246.178 54.6182C244.85 56.2199 242.873 57.1496 240.795 57.1496H234.258L265.715 24.1862C267.409 22.4096 269.753 21.4062 272.197 21.4062H279.21C281.087 21.4062 282.607 22.9343 282.607 24.8213V28.8071C282.607 32.0197 283.678 34.9745 285.463 37.3495C288.027 40.7461 292.092 42.9369 296.66 42.9369C297.676 42.9369 298.665 42.8265 299.627 42.624C300.386 42.4583 301 41.8968 301.21 41.142L303.701 32.0749C303.737 31.9093 303.737 31.7436 303.71 31.5779C303.545 30.4825 302.062 29.7921 300.396 30.0498C299.068 30.2523 298.034 30.998 297.75 31.8448C297.75 31.8448 297.008 30.3996 296.999 29.3318C296.981 27.9419 297.576 27.1686 298.912 26.4967L301.238 25.4013C302.703 24.0573 305.083 23.1736 307.784 23.1736C311.94 23.1736 315.355 25.254 315.795 27.9327L315.841 28.264L317.516 40.9855C317.635 41.8968 318.331 42.624 319.237 42.7713C319.979 42.8909 320.729 42.9554 321.498 42.9554C326.067 42.9554 330.132 40.7645 332.695 37.3679C334.49 34.993 335.552 32.0381 335.552 28.8255V24.8397C335.552 22.9527 337.072 21.4247 338.948 21.4247H345.961C348.406 21.4247 350.75 22.428 352.443 24.2046L383.901 57.168H377.373C375.295 57.168 373.327 56.2383 371.99 54.6366L362.139 42.7621C361.855 43.1671 361.553 43.5721 361.242 43.9587L378.984 66.1338L372.411 65.7011C370.287 65.563 368.337 64.4584 367.119 62.6911L357.222 48.3864L357.323 48.3587Z" fill="#B7A679"/>
    <path d="M305.01 15.417L309.167 12.3793L313.323 15.417L311.739 10.5015L315.896 7.45458H310.76L309.167 2.53906L307.583 7.45458H302.438L306.603 10.5015L305.01 15.417Z" fill="#B7A679"/>
    <path d="M325.789 15.5358L328.444 19.9634L328.875 14.8086L333.882 13.6211L329.149 11.6236L329.57 6.46875L326.219 10.3901L321.477 8.38341L324.141 12.8111L320.781 16.7232L325.789 15.5358Z" fill="#B7A679"/>
    <path d="M289.452 14.8178L289.836 19.9726L292.537 15.5726L297.536 16.8153L294.213 12.8663L296.913 8.46625L292.162 10.4177L288.839 6.46875L289.214 11.6236L284.453 13.5843L289.452 14.8178Z" fill="#B7A679"/>
    <path d="M214.88 118H212.381C212.381 118 212.344 117.963 212.326 117.945C212.317 117.926 212.298 117.908 212.298 117.899C212.298 70.6582 212.298 47.489 212.289 0.248537C212.289 0.174897 212.307 0.101256 212.317 0H214.834C214.834 0 214.862 0.0276153 214.871 0.0368203C214.88 0.0552305 214.898 0.0736407 214.898 0.0828458C214.898 47.3233 214.898 70.4926 214.907 117.733C214.907 117.807 214.898 117.88 214.88 118Z" fill="#B9A77A"/>
    <path d="M134.281 96.0828C134.061 96.4602 133.823 96.8376 133.622 97.2334C132.395 99.5623 131.177 101.891 129.951 104.211C129.612 104.855 129.264 105.49 128.925 106.135C128.834 106.31 128.733 106.485 128.394 106.485C127.634 105.481 127.177 104.248 126.527 103.125C125.886 102.011 125.309 100.86 124.705 99.7188C124.091 98.5589 123.478 97.3991 122.837 96.2116C122.681 96.8928 122.626 104.745 122.755 106.512C123.002 107.009 123.634 107.221 123.716 107.838C123.112 108.013 121.336 108.031 120.539 107.874C120.612 107.258 121.198 107 121.51 106.466V105.702C121.51 102.13 121.5 98.5681 121.519 94.9966C121.519 94.389 121.418 93.8459 121.107 93.312C120.914 92.9806 120.676 92.6585 120.658 92.2258C121.079 92.0233 121.5 92.1338 121.903 92.1154C122.315 92.097 122.736 92.1154 123.194 92.1154C125.172 95.8803 127.14 99.6083 129.118 103.373C129.392 103.244 129.429 102.977 129.53 102.775C131.26 99.4518 132.981 96.1196 134.702 92.7873C134.821 92.5664 134.922 92.3363 135.224 92.1246C135.554 92.1246 135.975 92.1062 136.387 92.1246C136.799 92.143 137.22 92.0325 137.641 92.2258C137.577 92.8794 136.945 93.0911 136.662 93.625V106.475C136.872 106.991 137.568 107.193 137.632 107.847C137.037 108.022 134.327 108.049 133.421 107.884C133.448 107.203 134.208 106.972 134.382 106.172V96.1196L134.263 96.092L134.281 96.0828Z" fill="#B7A679"/>
    <path d="M23.8855 107.723L24.8468 106.526V93.455L23.8672 92.3688C23.9771 92.0742 24.1693 92.1294 24.325 92.1294C26.3116 92.1294 28.2983 92.0558 30.2759 92.1479C32.2443 92.2399 34.1211 92.7186 35.7324 93.9521C37.4262 95.25 38.3508 96.9805 38.479 99.1069C38.5614 100.451 38.5339 101.786 37.9938 103.074C37.3529 104.584 36.4374 105.845 35.0092 106.683C33.8648 107.355 32.6471 107.741 31.3104 107.87C29.0216 108.082 26.7328 107.916 24.4531 107.981C24.3158 107.981 24.1785 107.944 24.0503 107.907C24.0045 107.898 23.9771 107.824 23.8947 107.732L23.8855 107.723ZM27.2546 106.342C27.4011 106.499 27.5751 106.563 27.7673 106.618C28.6005 106.876 29.4519 106.968 30.3217 106.959C32.7844 106.922 34.5422 105.523 35.3754 103.461C36.1261 101.611 36.2909 99.6592 35.7324 97.7261C35.0916 95.5077 33.7 93.9521 31.4203 93.3353C30.0562 92.9671 28.6646 93.1696 27.2546 93.142V106.342Z" fill="#B7A679"/>
    <path d="M99.783 91.9076C101.605 91.8156 103.317 92.4968 104.764 93.7763C106.192 95.0282 107.025 96.6299 107.3 98.5537C107.483 99.7964 107.437 101.002 107.098 102.199C106.302 105.006 104.599 107.004 101.779 107.842C98.1992 108.9 94.5188 107.501 92.6694 104.077C92.0835 102.991 91.8088 101.803 91.7905 100.533C91.7722 99.1705 91.9278 97.8541 92.4863 96.6022C93.5117 94.301 95.2054 92.7637 97.659 92.0917C98.3182 91.9076 98.9774 91.9076 99.7922 91.8984L99.783 91.9076ZM94.3357 99.9161C94.2624 102.024 94.7476 103.893 96.0477 105.467C97.2104 106.875 98.7576 107.418 100.534 107.041C102.246 106.682 103.344 105.531 104.059 103.985C104.937 102.07 105.111 100.063 104.69 98.0106C104.388 96.501 103.793 95.1386 102.594 94.0893C101.321 92.9754 99.8837 92.6348 98.2724 93.0951C96.6428 93.5646 95.6632 94.7428 95.0223 96.2432C94.5096 97.4307 94.2349 98.6918 94.3265 99.9253L94.3357 99.9161Z" fill="#B7A679"/>
    <path d="M165.968 104.36V99.7854C165.968 98.0456 165.949 96.2967 165.977 94.5569C165.986 93.8941 165.876 93.3418 165.345 92.9092C165.162 92.7619 164.942 92.587 164.988 92.2924C165.483 92.0807 167.14 92.0439 167.991 92.228C168.128 92.541 167.89 92.7159 167.716 92.8632C167.131 93.3326 167.03 93.9494 167.039 94.6581C167.066 98.7636 167.048 102.869 167.039 106.965C167.039 107.269 167.103 107.582 166.975 107.877C166.746 108.042 166.499 107.978 166.169 107.932C162.599 103.891 158.991 99.8038 155.311 95.6339V106.542C155.595 106.91 155.924 107.324 156.236 107.729C156.181 107.803 156.153 107.858 156.108 107.895C155.989 107.996 155.851 107.987 155.714 107.987C154.853 107.969 153.993 108.042 153.095 107.941C153.086 107.205 153.828 107.03 154.057 106.441V94.2531C153.453 93.6364 152.83 93.0012 152.125 92.2832C152.748 92.0347 153.269 92.1544 153.773 92.136C154.276 92.1175 154.78 92.136 155.274 92.136C158.799 96.177 162.315 100.2 165.959 104.379L165.968 104.36Z" fill="#B7A679"/>
    <path d="M40.0105 107.704L40.9718 106.507V93.6386C40.7887 93.0771 40.2485 92.801 39.9922 92.3407C40.0288 92.2579 40.038 92.2303 40.0563 92.2119C40.0746 92.1934 40.1021 92.1566 40.1204 92.1566C43.224 92.1382 46.3185 92.129 49.4221 92.1198C49.5595 92.1198 49.7059 92.083 49.8982 92.2855C49.8982 93.0035 49.8982 93.8135 49.8982 94.6236C49.8982 94.7893 49.9257 94.955 49.7792 95.1299C49.0925 94.6144 48.7172 93.8412 48.1221 93.1876H43.3796V98.9684C44.1395 99.1065 44.9177 99.0052 45.6868 99.0236C46.465 99.042 47.2523 99.0236 48.0488 99.0236L49.3489 97.8362C49.6052 98.3609 49.651 100.202 49.4404 101.076C48.7904 101.003 48.5707 100.331 48.0122 100.055H43.462C43.3064 100.653 43.2606 105.44 43.398 106.894H48.5432L50.182 104.501C50.4475 104.501 50.5299 104.63 50.5299 104.758C50.5299 105.743 50.5299 106.719 50.5116 107.704C50.5116 107.75 50.4567 107.796 50.4292 107.842C49.9348 107.98 41.6035 108.081 40.4042 107.962C40.2577 107.953 40.1295 107.907 40.0197 107.695L40.0105 107.704Z" fill="#B7A679"/>
    <path d="M143.755 99.0107H148.388C148.91 98.6886 149.212 98.1455 149.743 97.8601C149.944 98.4216 149.981 100.023 149.816 101.063C149.157 101.027 148.937 100.355 148.388 100.079H143.737V106.844C143.737 106.844 143.755 106.863 143.773 106.881C143.792 106.9 143.819 106.927 143.838 106.927C145.485 106.927 147.133 106.927 148.827 106.927C149.532 106.2 149.898 105.197 150.667 104.433C151.07 104.994 150.86 105.602 150.887 106.154C150.915 106.706 150.96 107.268 150.814 107.903C149.972 108.059 149.102 107.949 148.25 107.967C147.353 107.986 146.465 107.967 145.568 107.967C144.671 107.967 143.838 107.976 142.968 107.967C142.116 107.949 141.256 108.05 140.258 107.875C140.706 107.314 141.063 106.863 141.421 106.412C141.512 106.145 141.466 105.859 141.466 105.583C141.466 101.901 141.457 98.2191 141.485 94.5463C141.485 93.8835 141.366 93.3404 140.844 92.8986C140.642 92.7329 140.395 92.558 140.368 92.245C140.963 92.0793 148.607 92.0241 150.2 92.1714C150.356 92.6408 150.255 93.1471 150.274 93.635C150.292 94.1044 150.274 94.5831 150.274 95.1814C149.45 94.6107 149.093 93.8007 148.47 93.1655H143.828C143.682 93.7454 143.636 97.7128 143.773 99.0015L143.755 99.0107Z" fill="#B7A679"/>
    <path d="M77.8569 104.508V107.849C77.8569 107.849 77.8203 107.886 77.7928 107.904C77.7745 107.923 77.7471 107.95 77.7288 107.95C74.5427 107.96 71.3567 107.969 68.1706 107.978C68.0058 107.978 67.8319 107.978 67.6671 107.96C67.6213 107.96 67.5755 107.904 67.4657 107.849C67.5298 107.205 68.2439 106.956 68.4544 106.183C68.4544 105.502 68.4544 104.637 68.4544 103.771C68.4544 100.651 68.4453 97.5394 68.4636 94.4189C68.4636 93.839 68.3354 93.3879 67.9051 92.9921C67.6946 92.7988 67.3924 92.6147 67.4748 92.2373C68.0974 92.09 76.3371 92.0716 77.2069 92.2189C77.2801 93.1762 77.2435 94.1335 77.2252 95.2197C76.4562 94.5938 76.0808 93.8206 75.5132 93.2314C74.7716 93.1302 71.5032 93.1302 70.725 93.2314V99.0214C71.494 99.0214 72.2722 99.0306 73.0412 99.0398C73.8194 99.0398 74.6068 99.0398 75.4033 99.0398L76.7034 97.8524C76.9506 98.4139 76.978 100.338 76.7674 101.083C76.1815 100.955 75.9068 100.402 75.4216 100.089H70.7341V106.855C70.7341 106.855 70.7524 106.873 70.7707 106.892C70.789 106.91 70.8165 106.938 70.8348 106.938C72.4828 106.938 74.1307 106.938 75.8245 106.938C76.4836 106.165 76.978 105.226 77.6464 104.425L77.8386 104.517L77.8569 104.508Z" fill="#B7A679"/>
    <path d="M113.123 101.041C113.343 100.802 113.617 100.774 113.883 100.701C114.698 100.489 115.457 100.167 116.08 99.5594C116.794 98.8598 117.179 98.0221 117.16 97.0095C117.151 96.5401 117.179 96.0706 117.041 95.592C116.62 94.1099 115.558 93.4012 114.148 93.171C113.526 93.0698 112.876 93.1526 112.207 93.1526V106.408C112.537 106.813 112.903 107.264 113.26 107.715C113.205 107.844 113.132 107.945 113.013 107.945C111.676 107.945 110.34 107.945 108.957 107.945C108.93 107.19 109.671 107.015 109.909 106.426V93.5945C109.625 93.1526 109.094 92.8489 108.93 92.3242C109.03 92.0664 109.223 92.1216 109.378 92.1216C111.054 92.1216 112.738 92.094 114.414 92.1216C115.595 92.1493 116.73 92.4346 117.746 93.079C118.616 93.6313 119.156 94.4045 119.403 95.4079C119.861 97.2489 119.22 99.1912 117.719 100.148C117.096 100.544 116.437 100.811 115.741 101.014C115.018 101.216 114.267 101.29 113.507 101.253C113.37 101.253 113.224 101.262 113.123 101.041Z" fill="#B7A679"/>
    <path d="M63.4555 93.5759L62.4575 92.3148C63.0069 92.057 65.1309 92.0386 65.8267 92.2779C65.6985 92.6461 65.3872 92.8487 65.1309 93.0972C64.8654 93.3549 64.6731 93.6403 64.5358 93.9901C63.5745 96.5215 62.604 99.0437 61.6336 101.575C60.8462 103.637 60.0588 105.69 59.2715 107.752C59.1799 108 59.0792 108.221 58.713 108.166C58.2919 107.586 58.0996 106.877 57.825 106.224C56.3143 102.624 54.8312 99.0069 53.348 95.3893C53.3022 95.288 53.2565 95.1868 53.2198 95.0763C52.9086 94.1374 52.4508 93.2905 51.7367 92.5909C51.6635 92.5173 51.6177 92.416 51.5078 92.2411C52.0297 92.0294 52.5332 92.1491 53.0093 92.1307C53.5403 92.1122 54.0713 92.1122 54.6023 92.1307C55.0875 92.1491 55.5911 92.0202 56.1404 92.2595C55.765 92.7382 55.4263 93.1708 55.0875 93.6127C56.5066 97.1474 57.9165 100.664 59.3356 104.189C59.656 103.784 61.9357 97.9391 63.4555 93.5851V93.5759Z" fill="#B7A679"/>
    <path d="M175.367 93.1684H171.65C171.055 93.7667 170.662 94.5676 169.902 95.1751C169.764 94.6136 169.847 94.1165 169.828 93.6379C169.819 93.1684 169.828 92.6897 169.828 92.2387C170.524 92.0914 182.499 92.073 183.415 92.2111C183.415 93.0856 183.415 93.9785 183.415 94.8714C183.415 94.9818 183.314 95.0647 183.177 95.1199C182.518 94.6044 182.197 93.7852 181.538 93.1868H177.839C177.72 93.9324 177.684 104.684 177.775 106.507C178.032 106.948 178.508 107.197 178.727 107.666C178.746 107.712 178.727 107.777 178.718 107.832C178.086 108.053 175.047 108.044 174.424 107.795C174.607 107.28 175.038 106.958 175.358 106.553V93.1776L175.367 93.1684Z" fill="#B7A679"/>
    <path d="M88.4691 106.883C89.2473 105.916 89.7417 104.839 90.5474 103.974C90.5748 103.946 90.6481 103.965 90.703 103.965C90.8587 104.545 90.8861 106.883 90.7579 107.868C90.346 107.95 80.6871 108.042 80.2202 107.95C80.1104 107.932 80.0188 107.858 79.9639 107.729C80.1561 107.269 80.5498 106.938 80.8886 106.533V93.5905C80.7604 93.075 80.1378 92.7988 79.8906 92.2465C80.5864 92.0532 83.5894 92.0532 84.2669 92.2465C84.0838 92.7712 83.6626 93.1026 83.3055 93.5445V106.818C83.8457 106.975 87.2423 107.021 88.4691 106.883Z" fill="#B7A679"/>
    <path d="M63.7968 45.1428C63.577 45.5202 63.339 45.8976 63.1376 46.2843C61.9108 48.6131 60.6931 50.942 59.4663 53.2617C59.1001 53.9521 58.7339 54.6425 58.3585 55.3329C58.267 55.4986 58.212 55.7103 57.8275 55.6458C55.9598 52.3136 54.2112 48.8341 52.2428 45.2533V55.6919C52.4717 56.1061 52.9752 56.3822 53.2224 56.8609C52.6914 57.0818 51.2083 57.1279 50.1005 56.9714C50.1615 56.6523 50.4545 56.2073 50.9794 55.6366C51.0801 55.3697 51.0251 55.0843 51.0251 54.8082C51.0251 51.2366 51.0251 47.6742 51.0343 44.1027C51.0343 43.5503 50.9427 43.0533 50.6589 42.5838C50.4392 42.2064 50.2561 41.8014 50.0547 41.4056C50.5674 41.1294 51.1808 41.0834 52.6731 41.2307C54.6323 44.9495 56.6099 48.7052 58.6057 52.5069C59.1825 51.6876 59.5304 50.8592 59.9424 50.0675C61.3798 47.3152 62.808 44.5629 64.2362 41.8014C64.3552 41.5805 64.4468 41.3411 64.7031 41.2123H67.1384C67.1567 41.9579 66.4152 42.1236 66.1863 42.7127V55.563L67.23 56.9069C66.6898 57.1463 66.1863 57.0082 65.7102 57.0358C65.2341 57.0634 64.7581 57.0634 64.282 57.0358C63.7968 57.0082 63.2932 57.1555 62.7805 56.9161C62.9636 56.5019 63.2932 56.2718 63.5496 55.9956C63.8151 55.7103 63.9341 55.4065 63.9341 55.0107C63.9341 51.7245 63.9341 48.4382 63.9341 45.152L63.7968 45.1244V45.1428Z" fill="#B7A679"/>
    <path d="M171.912 49.1203C172.003 50.9429 171.426 52.6642 170.3 54.2015C169.028 55.9228 167.343 56.917 165.219 57.2576C163.278 57.5705 161.493 57.1655 159.882 56.1529C157.922 54.9195 156.787 53.0969 156.403 50.7772C156.055 48.6692 156.412 46.7177 157.446 44.8859C158.582 42.8884 160.275 41.6273 162.546 41.1763C164.816 40.7252 166.904 41.1302 168.79 42.5018C170.291 43.5972 171.234 45.07 171.719 46.865C171.912 47.583 171.912 48.301 171.912 49.1295V49.1203ZM164.175 42.0323C163.223 42.0139 162.372 42.2625 161.585 42.8148C160.834 43.3395 160.257 44.0114 159.845 44.8123C158.929 46.6257 158.618 48.5311 158.929 50.5747C159.149 52.0107 159.589 53.327 160.458 54.496C161.667 56.1253 164.368 57.0919 166.565 55.5914C167.664 54.8366 168.414 53.8241 168.854 52.5814C169.357 51.127 169.614 49.6449 169.385 48.0709C169.165 46.5797 168.799 45.1805 167.874 43.9654C166.94 42.7411 165.732 42.0508 164.175 42.0231V42.0323Z" fill="#B7A679"/>
    <path d="M128.634 55.5449C128.9 56.0788 129.522 56.2997 129.614 56.9073C128.982 57.0914 126.062 57.1006 125.375 56.9165C125.512 56.3273 126.052 56.042 126.382 55.5449V54.9098C126.382 51.0896 126.373 47.2695 126.391 43.4494C126.391 42.8695 126.245 42.4185 125.824 42.0318C125.613 41.8385 125.311 41.6544 125.393 41.2954C125.604 41.1021 125.842 41.1666 126.052 41.1666C127.508 41.1666 128.955 41.1481 130.41 41.1666C131.125 41.185 131.857 41.2494 132.544 41.4887C134.008 41.995 135.116 42.9615 135.409 44.508C135.757 46.3214 135.363 47.9507 133.633 49.2578C133.523 49.3407 133.413 49.4143 133.313 49.488C133.313 49.58 133.294 49.6444 133.313 49.6813C134.42 51.5591 135.409 53.5014 136.737 55.2411C137.167 55.8119 137.652 56.2905 138.302 56.5943C138.421 56.6495 138.577 56.6679 138.604 56.8612C138.549 57.0914 138.311 57.119 138.156 57.1374C136.654 57.3399 135.354 56.9809 134.365 55.729C133.578 54.7349 133.029 53.6026 132.379 52.5256C131.903 51.7432 131.454 50.9332 130.978 50.1231H129.083L128.616 49.8009V55.5173L128.634 55.5449ZM128.634 49.2486C129.412 49.2486 130.136 49.2947 130.85 49.2302C131.372 49.1842 131.839 48.9357 132.251 48.5582C133.23 47.6838 133.578 45.5114 133.011 44.1766C132.608 43.2285 131.967 42.5473 130.941 42.2804C130.465 42.1607 129.22 42.1699 128.634 42.3264V49.2486Z" fill="#B7A679"/>
    <path d="M89.449 53.3938V42.6791C89.1926 42.182 88.5701 41.9243 88.4144 41.1971C89.5405 41.1879 90.5568 41.1695 91.6279 41.2155C91.6462 41.9519 90.923 42.1452 90.6483 42.808V56.9378C90.337 57.1219 90.0624 57.039 89.7145 57.039C86.1165 52.9704 82.5001 48.8649 78.7922 44.6674V55.6123L79.781 56.8641C79.2592 57.1035 77.3823 57.1403 76.5675 56.9378C76.6316 56.5696 76.9429 56.3947 77.1626 56.1554C77.4373 55.8424 77.5654 55.5202 77.5654 55.0968C77.5563 51.2767 77.5654 47.4565 77.5654 43.6364C77.5654 43.526 77.5563 43.4155 77.5471 43.2959C76.9429 42.6791 76.3478 42.0624 75.7344 41.4364C76.2745 41.1511 77.1718 41.0958 78.8655 41.2431C82.3536 45.2381 85.8601 49.2607 89.4764 53.403L89.449 53.3938Z" fill="#B7A679"/>
    <path d="M107.961 41.5443C107.961 42.2347 107.961 42.9343 107.961 43.6339C107.961 43.7075 107.906 43.7811 107.879 43.8456C107.631 43.9008 107.613 43.6799 107.503 43.5694C107.274 43.3209 107.045 43.0815 106.807 42.833C106.011 41.9769 104.995 41.8757 103.951 42.115C102.843 42.3636 102.239 43.4682 102.486 44.5728C102.678 45.4288 103.127 46.0824 103.814 46.6347C104.967 47.5644 106.249 48.3285 107.348 49.3226C109.069 50.8875 109.701 52.9126 108.639 54.9745C107.915 56.3737 106.716 57.1009 105.16 57.239C103.612 57.3771 102.129 57.2206 100.701 56.567C100.463 56.4565 100.252 56.3461 100.097 56.1528C99.9593 54.9561 100.005 52.8758 100.17 52.3235C100.408 52.3235 100.39 52.5168 100.445 52.6733C100.82 53.7687 101.296 54.7996 102.212 55.5729C103.219 56.4197 105.434 56.6314 106.432 55.3059C106.606 55.0758 106.771 54.8641 106.835 54.5879C107.1 53.4373 107.045 52.3603 106.185 51.449C105.645 50.8783 105.059 50.372 104.4 49.9301C103.429 49.2766 102.459 48.6138 101.644 47.7485C100.875 46.9477 100.445 45.9812 100.426 44.8857C100.399 42.9343 101.452 41.7008 103.228 41.1945C104.564 40.8079 105.929 40.9276 107.274 41.2589C107.485 41.3142 107.723 41.2866 107.988 41.5259L107.961 41.5443Z" fill="#B7A679"/>
    <path d="M182.851 46.9672C183.053 47.9245 183.025 49.6735 182.824 50.3178C182.339 49.9956 182 49.5446 181.533 49.1672H176.8V55.6107C177.074 56.0526 177.624 56.3287 177.761 56.9179C177.138 57.1112 174.209 57.1204 173.531 56.9271C173.623 56.3195 174.236 56.0894 174.511 55.5647V42.8893C174.328 42.2265 173.623 41.9688 173.531 41.3152C174.273 41.1403 182.687 41.1496 183.327 41.3152C183.501 41.9412 183.511 43.5245 183.327 44.2425C182.513 43.773 182.21 42.8617 181.533 42.245H176.882C176.745 42.8525 176.708 46.8567 176.845 48.1086H181.451C181.972 47.814 182.357 47.3998 182.86 46.9764L182.851 46.9672Z" fill="#B7A679"/>
    <path d="M144.283 48.3157C145.528 46.3918 146.709 44.5692 147.862 42.7926C147.789 42.139 147.066 41.9457 147.02 41.3382C147.597 41.1541 149.364 41.1265 150.343 41.2646C150.481 41.4303 150.426 41.5683 150.298 41.7064C150.261 41.7524 150.224 41.7985 150.179 41.8261C149.025 42.5717 148.467 43.796 147.743 44.873C146.773 46.3089 145.848 47.7726 144.896 49.2454V55.5693C145.226 55.9927 145.564 56.4253 145.958 56.9224C145.418 57.1617 144.914 57.0237 144.438 57.0513C143.962 57.0789 143.486 57.0789 143.01 57.0513C142.525 57.0237 142.021 57.1617 141.499 56.9316C141.655 56.545 141.957 56.3241 142.204 56.0663C142.525 55.7442 142.662 55.3944 142.653 54.9433C142.635 53.2312 142.653 51.519 142.653 49.7517C141.518 48.0395 140.355 46.2997 139.211 44.5416C138.533 43.5106 137.846 42.4888 136.876 41.7064C136.812 41.6512 136.757 41.5867 136.711 41.5131C136.684 41.4671 136.684 41.4118 136.656 41.2922C137.178 41.0805 137.737 41.2185 138.268 41.1909C138.799 41.1633 139.33 41.1725 139.861 41.1909C140.41 41.2093 140.968 41.0989 141.536 41.283C141.509 41.9089 140.913 42.139 140.694 42.7374C141.838 44.514 143.037 46.355 144.301 48.3157H144.283Z" fill="#B7A679"/>
    <path d="M123.406 41.2529C123.406 42.155 123.406 43.0202 123.406 43.8855C123.406 43.996 123.387 44.1064 123.213 44.2169C122.563 43.6554 122.179 42.8361 121.547 42.247H117.803C117.647 42.4495 117.702 42.652 117.702 42.8453C117.702 46.8312 117.702 50.817 117.684 54.8028C117.684 55.3919 117.848 55.8337 118.27 56.2111C118.489 56.4136 118.736 56.607 118.819 56.9291C118.151 57.0948 115.175 57.0948 114.452 56.9291C114.653 56.386 115.093 56.027 115.431 55.6036V42.247H111.669C111.046 42.7901 110.68 43.6738 109.92 44.2629C109.838 44.1064 109.773 44.042 109.773 43.9684C109.773 43.0755 109.773 42.1826 109.773 41.2989C110.405 41.1424 121.803 41.0872 123.396 41.2345L123.406 41.2529Z" fill="#B7A679"/>
    <path d="M70.4917 42.641C70.1804 42.1716 69.6311 41.8954 69.5212 41.2971C70.1987 41.159 72.9545 41.1498 73.8425 41.2787C73.87 41.969 73.1193 42.1347 72.8904 42.7515V55.565C73.0552 56.1081 73.6137 56.3934 73.9158 56.9457C73.3939 57.1759 72.8904 57.047 72.4143 57.0654C71.9382 57.093 71.4622 57.0746 70.9861 57.0654C70.5009 57.0654 70.0065 57.093 69.4297 57.0286C69.7135 56.4487 70.1621 56.1725 70.4734 55.7214V42.6502L70.4917 42.641Z" fill="#B7A679"/>
    <path d="M94.8417 42.7376C94.5487 42.1485 93.917 41.9368 93.8438 41.3109C94.5212 41.136 97.515 41.136 98.1925 41.3109C98.0918 41.9184 97.5059 42.1761 97.2129 42.6824V55.68C97.4876 56.1587 98.0094 56.4072 98.2108 56.9319C97.515 57.0976 94.5396 57.0976 93.8438 56.9319C93.8987 56.5637 94.2191 56.3888 94.4297 56.1495C94.7135 55.8457 94.8417 55.5143 94.8417 55.0909C94.8325 50.9578 94.8417 46.8339 94.8417 42.7284V42.7376Z" fill="#B7A679"/>
    <path d="M48.9024 80.8498C49.1953 81.4389 49.8179 81.7519 49.8911 82.4054C49.1221 82.5619 46.3297 82.5527 45.6797 82.3962C45.7255 81.7611 46.3755 81.5678 46.6502 81.0063V70.3928C44.755 73.9736 42.9056 77.4807 41.0746 80.951C40.9006 81.0523 40.7633 81.0431 40.5802 80.9694C38.7583 77.5912 36.973 74.1577 35.0687 70.6781C34.9314 71.0648 34.9863 71.3409 34.9863 71.6171C34.9863 74.4246 35.0046 77.2322 34.968 80.0489C34.968 80.7393 35.087 81.31 35.6364 81.7703C35.8195 81.9176 36.0575 82.0833 35.9385 82.3962C35.1969 82.5987 33.3842 82.5711 32.7891 82.3226C32.9722 82.074 33.137 81.8347 33.3201 81.6046C33.494 81.3837 33.6863 81.1812 33.906 80.9234V80.1226C33.906 76.8087 33.8694 73.4949 33.9243 70.1811C33.9426 69.1501 33.7137 68.2572 33.1827 67.4011C33.0637 67.217 32.8806 67.0605 32.9722 66.7568C33.375 66.5727 33.8236 66.6831 34.2539 66.6647C34.6659 66.6463 35.087 66.6647 35.499 66.6647C37.4857 70.4388 39.445 74.1669 41.45 77.9962C43.4458 74.1853 45.3959 70.448 47.3643 66.6739C48.2066 66.6647 49.0305 66.6555 49.827 66.6739C49.9735 67.1158 49.708 67.2999 49.5066 67.4656C49.0214 67.889 48.8841 68.3953 48.8841 69.0304C48.9115 72.7125 48.8932 76.3945 48.8932 80.0765V80.8498H48.9024Z" fill="#B7A679"/>
    <path d="M16.8165 82.3769C16.844 81.7049 17.6313 81.5484 17.787 80.6555V68.155C17.5306 67.6579 16.8989 67.4094 16.7891 66.8203C17.0271 66.5993 17.2285 66.6638 17.4208 66.6546C19.2976 66.6546 21.1653 66.6177 23.0421 66.6638C24.7633 66.7098 26.4204 67.0964 27.8944 68.0169C29.7896 69.1952 30.9614 70.8705 31.3093 73.1442C31.584 74.9299 31.3368 76.5961 30.5769 78.1977C29.579 80.3149 27.8303 81.5208 25.6514 82.1743C24.8182 82.4229 23.9485 82.4689 23.0971 82.4965C21.1653 82.561 19.2427 82.5149 17.3109 82.5149C17.1736 82.5149 17.0271 82.5425 16.8257 82.3769H16.8165ZM20.0758 67.6579V80.9317C20.2406 81.0053 20.3871 81.0881 20.5427 81.1434C21.4766 81.4563 22.447 81.5484 23.4266 81.484C25.4042 81.3551 26.9514 80.4714 27.8761 78.6856C29.0846 76.3383 29.2677 73.899 28.2698 71.4136C27.5191 69.545 26.1549 68.3759 24.2232 67.8604C22.8773 67.5014 21.5132 67.75 20.085 67.6579H20.0758Z" fill="#B7A679"/>
    <path d="M116.157 74.9979C117.311 76.8665 118.245 78.7812 119.527 80.4841C120.048 81.1837 120.616 81.8373 121.477 82.095C121.577 82.3159 121.541 82.4724 121.321 82.5C119.563 82.767 118.062 82.3896 117.018 80.7971C116.176 79.5084 115.471 78.146 114.665 76.8297C114.436 76.4523 114.217 76.0565 114.006 75.6883C113.246 75.3937 112.404 75.8908 111.671 75.3017V81.0732C111.937 81.4507 112.386 81.7728 112.578 82.2699C112.495 82.454 112.34 82.5 112.166 82.5C110.966 82.5 109.758 82.5 108.559 82.5C108.485 82.5 108.403 82.454 108.33 82.4264C108.354 82.1748 108.656 81.7207 109.236 81.064V68.1033L108.266 66.8606C108.385 66.6397 108.531 66.6489 108.668 66.6489C110.454 66.6489 112.248 66.5844 114.033 66.6673C115.462 66.7317 116.771 67.238 117.65 68.4623C118.703 69.9259 118.748 71.8313 117.732 73.4146C117.54 73.7184 117.348 74.0314 117.055 74.2707C116.771 74.5008 116.487 74.7217 116.148 74.9887L116.157 74.9979ZM111.653 74.5929C112.404 74.5929 113.063 74.5745 113.731 74.5929C114.299 74.6113 114.748 74.3996 115.15 74.0037C115.544 73.6171 115.8 73.1753 115.974 72.669C116.267 71.8498 116.258 70.9937 116.103 70.1836C115.865 68.9593 115.16 68.0112 113.878 67.7351C113.155 67.5786 112.404 67.6246 111.644 67.7351V74.5929H111.653Z" fill="#B7A679"/>
    <path d="M73.5209 82.3112C73.1547 82.5965 72.88 82.4769 72.6511 82.4953C71.2962 80.9764 69.9686 79.4944 68.6503 78.0124C66.8284 75.9597 65.0065 73.9161 63.212 71.845C62.736 71.2927 62.2507 70.7588 61.6831 70.1512V81.0501C61.9211 81.5103 62.5254 81.7405 62.6536 82.3296C62.1226 82.5505 60.5662 82.5965 59.4767 82.4216C59.4584 81.7312 60.2091 81.5656 60.4288 80.958V68.7797C59.907 68.0985 59.1471 67.583 58.5703 66.7914C59.1196 66.5429 59.6415 66.6809 60.145 66.6625C60.6486 66.6441 61.1521 66.6625 61.7106 66.6625C65.2171 70.6851 68.7418 74.7262 72.3215 78.8224V68.1445C72.0377 67.6475 71.4701 67.3989 71.3145 66.819C71.9462 66.6257 73.7406 66.6073 74.5371 66.7822C74.354 67.3345 73.7955 67.6106 73.5209 68.3194V82.3204V82.3112Z" fill="#B7A679"/>
    <path d="M172.829 66.7045H182.818C182.818 67.5514 182.818 68.3614 182.818 69.1623C182.818 69.328 182.854 69.5029 182.681 69.6686C182.012 69.1531 181.628 68.3891 181.033 67.7355H176.29V73.5163C177.05 73.6544 177.828 73.5623 178.597 73.5807C179.375 73.5991 180.163 73.5807 180.959 73.5807C181.39 73.1849 181.82 72.7983 182.259 72.3933C182.516 72.918 182.552 74.7682 182.351 75.6335C181.701 75.5598 181.481 74.8786 180.941 74.6117H176.373C176.226 75.2192 176.189 80.2084 176.318 81.4511H181.426C182.076 80.7055 182.479 79.7665 183.147 79.0393C183.358 79.0577 183.44 79.1866 183.44 79.3247C183.45 80.328 183.44 81.3406 183.44 82.2519C183.239 82.5281 183.047 82.5189 182.845 82.5189C179.742 82.5189 176.638 82.5189 173.534 82.5189C173.315 82.5189 173.077 82.5649 172.921 82.2611C173.214 81.8837 173.516 81.4971 173.855 81.0553V68.0116C173.626 67.579 173.122 67.3121 172.82 66.6953L172.829 66.7045Z" fill="#B7A679"/>
    <path d="M124.533 80.8555C124.689 81.5643 125.357 81.7852 125.44 82.3928C124.671 82.5585 123.041 82.5493 122.4 82.3928C122.281 82.0798 122.51 81.9141 122.684 81.7576C123.16 81.3342 123.416 80.8003 123.599 80.202C124.048 78.7107 124.552 77.2287 125.028 75.7375C125.925 72.9483 126.822 70.1592 127.701 67.3701C127.774 67.1307 127.866 66.9006 127.976 66.6797H130.374C130.612 66.8914 130.667 67.1491 130.75 67.3885C131.711 70.1316 132.654 72.8655 133.606 75.6086C134.192 77.2931 134.796 78.9777 135.364 80.6714C135.51 81.0948 135.794 81.3802 136.069 81.684C136.243 81.8773 136.536 82.0246 136.435 82.3744C135.849 82.5308 133.103 82.5585 132.27 82.402C132.205 81.7484 132.993 81.5919 133.093 80.8279C132.562 79.3367 132.05 77.6337 131.354 75.94H126.621C126.355 75.8019 126.401 75.627 126.264 75.4153C125.659 77.3024 125.083 79.1158 124.524 80.8555H124.533ZM126.447 74.8722H131.034C130.237 72.5893 129.459 70.3433 128.635 67.9868C127.893 70.3341 127.17 72.5801 126.447 74.8722Z" fill="#B7A679"/>
    <path d="M11.4944 81.0212C11.0366 79.3735 10.3225 77.7442 9.80065 75.9584C8.97668 75.9124 8.17101 75.94 7.3745 75.9308C6.56884 75.9308 5.76317 75.9308 5.13146 75.9308C4.76525 75.8203 4.75609 75.6178 4.61876 75.4521C4.02367 77.3024 3.43773 79.125 2.84264 80.9476C3.02574 81.2053 3.17223 81.4354 3.33702 81.6564C3.49266 81.8681 3.79479 82.0062 3.7307 82.3467C3.20885 82.54 1.92711 82.5861 0.7827 82.4388C0.617905 82.2363 0.709457 82.0614 0.865097 81.9325C1.58836 81.3618 1.83556 80.5425 2.10106 79.7141C3.37364 75.7007 4.6737 71.6965 5.97375 67.7015C6.08361 67.3609 6.05614 66.9743 6.38573 66.6797H8.83019C9.1964 67.7107 9.58093 68.7508 9.93798 69.8002C11.1831 73.381 12.4191 76.9618 13.6733 80.5425C13.8198 80.966 14.067 81.3434 14.3966 81.6656C14.5797 81.8497 14.8727 81.9969 14.7994 82.4112C14.1219 82.6321 13.4078 82.4848 12.7029 82.5032C12.0162 82.5124 11.3204 82.5953 10.6155 82.4388C10.6155 81.8128 11.2106 81.6287 11.4944 81.0212ZM6.98998 68.0052C6.2484 70.3341 5.52514 72.5893 4.80187 74.8722H9.38867C8.59216 72.5801 7.8048 70.3341 6.98998 68.0052Z" fill="#B7A679"/>
    <path d="M91.0098 66.9426C90.9823 67.7526 91.0739 68.5258 90.9365 69.3635C90.5795 69.2162 90.4513 68.9216 90.2774 68.7007C89.6731 67.8723 88.8308 67.4488 87.8604 67.4028C87.0089 67.3568 86.2033 67.6329 85.7363 68.4706C85.2145 69.4187 85.3976 70.33 85.9927 71.1493C86.3864 71.6924 86.8899 72.1434 87.4392 72.5484C88.309 73.1928 89.2062 73.8095 90.0668 74.4815C91.2112 75.3744 92.026 76.525 92.1267 77.9979C92.2274 79.5259 91.7056 80.8606 90.4238 81.8088C89.609 82.4071 88.6843 82.6556 87.6956 82.7109C86.3406 82.7753 85.0405 82.536 83.7863 82.0113C83.4841 81.8824 83.1545 81.7719 82.9531 81.3761C82.9531 80.2715 82.9531 79.0933 82.9531 77.915C82.9531 77.8414 83.0081 77.7585 83.0355 77.6849C83.356 77.6389 83.4017 77.869 83.4658 78.0899C83.6947 78.8723 84.0426 79.6087 84.5095 80.2715C85.48 81.6431 87.4026 82.0665 88.7484 81.3025C89.5175 80.8606 89.8928 80.1979 89.9752 79.3326C90.1034 77.9702 89.5175 76.9393 88.4738 76.1476C87.6956 75.5585 86.8716 75.0246 86.1025 74.4355C85.3518 73.8648 84.6102 73.2756 84.0884 72.4472C83.1728 70.9744 83.1912 69.2254 84.2349 67.8999C84.8574 67.1082 85.7089 66.7308 86.6519 66.5283C87.7139 66.2982 89.8379 66.5283 91.0098 66.961V66.9426Z" fill="#B7A679"/>
    <path d="M164.607 82.6854C164.167 82.7499 164.085 82.5105 163.984 82.2712C163.215 80.3842 162.428 78.5063 161.649 76.6193C160.523 73.8854 159.397 71.1515 158.271 68.4083C158.079 67.9297 157.639 67.6351 157.365 67.2117C157.273 67.0736 157.108 66.9908 157.136 66.7883C157.703 66.6042 160.835 66.5857 161.622 66.7698C161.457 67.3313 160.825 67.5615 160.642 68.2058C162.034 71.6761 163.462 75.2109 164.927 78.8745C166.309 75.2293 167.655 71.6854 168.992 68.1322C168.681 67.6719 168.186 67.3498 168.012 66.7975C168.644 66.6226 170.612 66.6134 171.354 66.779C171.299 67.1472 170.988 67.3314 170.759 67.5431C170.393 67.9021 170.146 68.3071 169.962 68.795C168.827 71.7958 167.664 74.7875 166.52 77.7791C166.007 79.1047 165.513 80.4394 165 81.7649C164.881 82.0779 164.735 82.3725 164.607 82.6854Z" fill="#B7A679"/>
    <path d="M100.757 80.9875C101.031 81.549 101.672 81.7515 101.736 82.3775C101.114 82.5432 98.3579 82.5616 97.5614 82.4143C97.3966 82.0277 97.7537 81.8804 97.9185 81.6595C98.1016 81.4109 98.2847 81.1716 98.4769 80.9139V67.7046C97.8269 67.7046 97.1952 67.6862 96.5635 67.6862C95.9501 67.6862 95.3367 67.6862 94.6775 67.6862C94.1373 68.3489 93.5789 69.0301 92.9838 69.7481C92.9014 69.6008 92.8281 69.5272 92.8281 69.4627C92.8281 68.5698 92.8281 67.677 92.8281 66.7841C93.4598 66.6184 104.739 66.5631 106.405 66.7104C106.46 67.6862 106.451 68.6711 106.405 69.7849C105.536 69.1774 105.234 68.2661 104.501 67.7046H100.857C100.693 68.395 100.638 76.3389 100.757 80.9875Z" fill="#B7A679"/>
    <path d="M149.071 66.6839C149.071 67.724 149.108 68.6906 149.034 69.7952C148.275 69.114 147.853 68.35 147.231 67.7056H143.505C143.34 68.3684 143.276 77.9141 143.413 80.8137C143.596 81.4764 144.301 81.725 144.384 82.3877C143.679 82.5442 140.877 82.5534 140.2 82.4061C140.236 82.1484 140.541 81.6974 141.115 81.053V67.7148C140.483 67.6412 139.852 67.6872 139.22 67.678C138.607 67.6688 137.993 67.678 137.398 67.678C136.721 68.2671 136.364 69.0956 135.704 69.6663C135.421 69.1784 135.375 68.396 135.512 66.7851C135.53 66.7667 135.549 66.7391 135.567 66.7207C135.585 66.7023 135.613 66.6931 135.64 66.6839C135.668 66.6747 135.695 66.6655 135.723 66.6655C139.998 66.6655 144.274 66.6655 148.549 66.6562C148.687 66.6562 148.824 66.6655 149.08 66.6839H149.071Z" fill="#B7A679"/>
    <path d="M81.1936 82.278C81.1387 82.4161 81.038 82.4806 80.9373 82.499C80.4978 82.5726 77.3392 82.499 76.9089 82.3977C76.9456 81.7626 77.5956 81.5601 77.8702 81.0077V68.093C77.5406 67.6788 77.092 67.329 76.8906 66.7767C77.6414 66.5926 80.626 66.611 81.2668 66.8043C81.038 67.329 80.4612 67.5959 80.2598 68.1943V81.0446C80.571 81.468 81.0105 81.7902 81.2028 82.2873L81.1936 82.278Z" fill="#B7A679"/>
    <path d="M150.9 66.7031H155.267C155.184 67.3659 154.626 67.6328 154.296 68.1207V81.0354C154.562 81.5233 155.13 81.7811 155.331 82.3794C154.8 82.6463 154.296 82.4898 153.82 82.5175C153.344 82.5451 152.868 82.5451 152.392 82.5175C151.916 82.4898 151.403 82.6555 150.891 82.3334L152.044 80.8974V80.161C152.044 76.4513 152.026 72.7509 152.053 69.0412C152.053 68.3969 151.916 67.8906 151.431 67.4764C151.229 67.3015 151 67.1174 150.9 66.7123V66.7031Z" fill="#B7A679"/>
    <path d="M55.9532 80.9143C56.5392 81.62 56.8535 82.1171 56.8962 82.4055C56.2462 82.5528 53.4539 82.5528 52.7672 82.4055C52.8038 82.16 53.109 81.709 53.6827 81.0524V68.1192C53.4355 67.6497 52.8405 67.4104 52.7031 66.8305C53.2433 66.6096 56.0997 66.5727 56.9146 66.7661C57.0336 67.1158 56.7589 67.2907 56.5667 67.4564C56.0814 67.8799 55.9441 68.3862 55.9441 69.0213C55.9716 72.7217 55.9532 76.4314 55.9532 80.141V80.9051V80.9143Z" fill="#B7A679"/>
    <path d="M119.018 15.12C119.979 14.9819 121.737 15.0003 122.341 15.1476C122.341 15.479 122.048 15.6078 121.883 15.8103C121.7 16.0221 121.508 16.2246 121.361 16.5652C121.361 18.397 121.361 20.3024 121.361 22.2079C121.361 22.4472 121.435 22.6589 121.563 22.8338C122.259 23.8004 123.147 24.5276 124.364 24.6104C125.445 24.684 126.534 24.6288 127.66 24.6288V11.4011C127.44 10.9132 126.809 10.6095 126.708 9.96511C127.312 9.79021 129.995 9.75339 130.919 9.91908C130.929 10.6095 130.187 10.7844 129.958 11.3735V24.187C130.233 24.6748 130.782 24.951 130.956 25.4297C130.837 25.7242 130.645 25.6874 130.489 25.6874C128.365 25.6874 126.241 25.6966 124.117 25.6874C123.018 25.6874 122.075 25.31 121.05 24.546C120.995 24.5552 120.922 24.546 120.894 24.5828C120.144 25.4481 119.192 25.7886 118.056 25.7058C117.361 25.6506 116.656 25.6874 115.96 25.7058C114.751 25.7242 113.643 25.4573 112.673 24.7117C112.591 24.6472 112.481 24.6104 112.288 24.5183C112.188 24.6564 112.096 24.8405 111.941 24.9602C111.391 25.4112 110.778 25.715 110.036 25.715C107.683 25.7058 105.34 25.715 102.987 25.715C102.877 25.715 102.767 25.6966 102.703 25.6874C102.474 25.5217 102.602 25.2824 102.483 25.1167L102.126 25.6874C100.377 25.8071 98.7021 25.7518 97.3562 24.546C97.0541 24.5183 96.9534 24.7117 96.8252 24.8405C96.2484 25.4389 95.5343 25.7058 94.7287 25.715C93.7491 25.7334 92.7694 25.7334 91.7898 25.715C90.7553 25.6966 89.8397 25.3284 88.9791 24.7761C88.8693 24.7024 88.7869 24.5736 88.5763 24.5736C88.1735 25.0246 87.7249 25.4573 87.0565 25.6138C86.8093 25.669 86.5713 25.7334 86.315 25.7334C84.7769 25.7334 83.2388 25.7518 81.7007 25.7334C80.6936 25.715 79.8788 25.31 79.3295 24.4079C79.0823 24.0029 79.0274 23.5794 79.0274 23.1192C79.0274 21.0388 79.0274 18.9585 79.0274 16.8781V16.0589C75.9878 15.6078 73.5525 17.9551 73.8912 20.8455C74.056 22.2355 74.8525 23.2573 76.1343 23.874C76.6836 24.1409 77.3062 24.2054 77.8372 24.4631C77.8463 24.6288 77.7914 24.7301 77.6632 24.7301C75.3835 24.8037 73.3785 24.1501 72.106 22.1434C70.9524 20.3116 71.1721 17.7526 73.4243 16.1509C74.3582 15.4882 75.4385 15.166 76.5554 15.12C78.3407 15.0555 80.1351 15.1015 81.9204 15.1015C82.0303 15.1015 82.1401 15.12 82.2409 15.258C82.131 15.7919 81.6183 16.0681 81.2521 16.5744V17.6514C81.2521 19.3635 81.2979 21.0849 81.2338 22.797C81.1972 23.966 82.0211 24.8037 83.1381 24.7209C83.6965 24.6748 84.255 24.6932 84.8135 24.7209C86.0678 24.7761 86.7453 24.0397 86.7453 22.7418C86.7453 21.3886 86.7453 20.0447 86.7453 18.6915C86.7453 17.7066 86.7453 16.7216 86.7453 15.7367C86.7453 15.5434 86.6995 15.3409 86.8643 15.1384H89.9496C89.9496 15.8656 89.2355 16.0497 88.9883 16.6296V22.5393C90.0137 24.5736 92.3483 25.1811 94.6646 24.4447C95.1132 23.8924 95.2505 23.2112 95.3054 22.5116C95.397 21.4531 95.5893 20.4129 95.9372 19.4095C96.166 18.7376 96.4773 18.1116 96.8985 17.5593C98.7845 15.0279 102.694 15.6999 103.792 18.0564C104.323 19.1886 104.58 20.3669 104.763 21.5911C104.909 22.5945 104.9 23.5978 104.928 24.5828C105.092 24.8037 105.303 24.7301 105.486 24.7301C106.548 24.7301 107.61 24.7301 108.672 24.7301C109.157 24.7301 109.606 24.6196 109.972 24.2606C110.348 23.9016 110.43 23.4598 110.43 22.9627C110.421 20.6614 110.43 18.3509 110.43 16.0497C110.43 15.7735 110.375 15.4882 110.531 15.1292C111.565 15.1108 112.636 15.12 113.827 15.1292C113.607 15.7551 113.085 16.0036 112.783 16.5191C112.783 17.5041 112.783 18.5719 112.783 19.6397C112.783 20.7074 112.783 21.72 112.783 22.6681C113.396 23.7083 114.211 24.3619 115.291 24.6288C116.115 24.8313 116.967 24.8037 117.782 24.6656C118.587 24.5276 118.99 23.9568 118.999 23.0916C119.008 20.7903 118.999 18.4798 118.999 16.1785C118.999 15.8748 118.999 15.5618 118.999 15.212L119.018 15.12ZM100.094 16.7493C99.7824 16.9242 99.3979 16.8781 99.0683 17.0622C98.6197 17.3108 98.3908 17.725 98.2168 18.1668C97.6675 19.52 97.6858 20.956 97.7224 22.3828C97.7224 22.6681 97.933 22.889 98.0978 23.11C99.2422 24.6012 100.799 24.8129 102.529 24.5828C102.529 23.6991 102.547 22.8614 102.529 22.0238C102.501 21.1861 102.474 20.3484 102.355 19.52C102.263 18.894 102.108 18.2589 101.787 17.6974C101.549 17.2832 101.229 17.007 100.762 16.9149C100.57 16.8781 100.387 16.8229 100.094 16.7585V16.7493Z" fill="#B7A679"/>
    <path d="M6.45677 24.5857C5.8159 24.7974 5.22996 24.733 4.68064 24.6225C3.51792 24.4016 2.4376 23.9782 1.54038 23.1683C0.661475 22.3675 0.130469 21.3826 0.0206057 20.1952C-0.226587 17.572 1.78758 15.6943 4.05809 15.2249C4.71727 15.0868 5.37645 15.05 6.04478 15.0592C7.35399 15.0684 8.67235 15.0592 9.98155 15.0592C10.2287 15.0592 10.4851 14.9948 10.7598 15.1605C10.6865 15.7587 10.1372 16.0349 9.78929 16.5503V18.4004C9.78929 19.8915 9.81676 21.3826 9.78929 22.8645C9.76183 23.923 10.5858 24.6962 11.5563 24.6686C12.7831 24.641 14.0007 24.6686 15.2825 24.6686V15.2157C15.9142 15.0132 17.8917 15.004 18.6333 15.1697C18.6333 15.501 18.3403 15.6207 18.1755 15.8324C18.0199 16.0257 17.8368 16.2005 17.6811 16.3754V24.1715C17.7635 24.4569 17.9833 24.6778 18.1847 24.9079C18.3586 25.1104 18.6425 25.2484 18.6425 25.5706C18.441 25.7547 18.203 25.6903 17.9924 25.6903C15.4473 25.6903 12.9021 25.6903 10.3661 25.6903C9.28575 25.6903 8.43431 25.2484 7.85753 24.3096C7.61033 23.9046 7.58287 23.472 7.58287 23.021C7.58287 20.9684 7.58287 18.925 7.58287 16.8725C7.58287 16.5963 7.58287 16.3202 7.58287 15.9612C6.25535 15.86 5.07432 16.1085 4.03977 16.9185C2.56577 18.0782 2.0073 20.1768 2.73057 21.8244C3.2982 23.113 4.30528 23.8034 5.59617 24.1623C5.83421 24.2268 6.0814 24.2912 6.31944 24.3648C6.35606 24.374 6.38353 24.4477 6.48424 24.5949L6.45677 24.5857Z" fill="#B7A679"/>
    <path d="M46.8771 25.614C46.8221 24.988 46.8496 24.4081 46.8587 23.8558C47.3531 23.7453 47.582 24.0583 47.8384 24.2424C48.2687 24.5554 48.7173 24.6934 49.2391 24.6566C49.6877 24.629 50.1272 24.6566 50.5483 24.6566C50.5941 24.6106 50.6124 24.5922 50.6307 24.5738C50.649 24.5554 50.6673 24.5278 50.6765 24.5093C50.6857 24.4541 50.6948 24.3989 50.6948 24.3437C50.6948 20.634 50.704 16.9244 50.7131 13.2239C50.7131 13.1963 50.7314 13.1687 50.7314 13.1503C51.3174 12.957 53.3041 12.9478 54.0456 13.1411C53.8534 13.6658 53.3315 13.9143 53.0477 14.4114V23.2575C52.5076 23.819 51.7843 24.1319 51.0976 24.629H56.7831C56.957 23.9939 57.0211 15.4976 56.8838 11.3277L55.8675 10.1586C56.4626 9.93769 59.3832 9.90087 60.2529 10.0942L59.1726 11.4289C59.0902 11.6775 59.136 11.9536 59.136 12.239C59.136 15.921 59.1451 19.603 59.1177 23.2759C59.1177 23.9386 59.2458 24.4817 59.7585 24.9236C59.96 25.0985 60.2072 25.2642 60.2346 25.5771C59.6578 25.7428 48.232 25.7981 46.8679 25.6324L46.8771 25.614Z" fill="#B7A679"/>
    <path d="M176.434 30.489C176.388 30.2313 176.342 30.0104 176.443 29.7803C176.507 29.7526 176.589 29.6974 176.663 29.7066C177.459 29.7618 178.228 29.6054 178.933 29.274C180.306 28.6388 180.938 27.479 181.085 26.0154C181.112 25.7668 181.085 25.5183 181.085 25.1961L180.673 25.6932H174.676C174.035 24.1652 173.568 22.6279 173.715 20.971C173.815 19.8019 174.255 18.7434 174.951 17.8044C176.287 16.0094 178.063 15.0705 180.306 15.0521C181.423 15.0521 182.54 15.0521 183.666 15.0521C183.914 15.0521 184.17 14.9785 184.435 15.181C184.271 15.7057 183.73 15.9358 183.437 16.4605C183.437 17.289 183.437 18.1911 183.437 19.0932C183.437 21.1459 183.437 23.1986 183.437 25.2514C183.437 26.6321 183.08 27.9024 182.165 28.9702C181.249 30.038 180.096 30.6455 178.695 30.7468C177.944 30.802 177.194 30.802 176.425 30.4983L176.434 30.489ZM176.882 24.5794C177.871 24.7083 180.489 24.6806 181.048 24.5334V15.9726C179.958 15.8714 178.796 16.2028 177.825 16.9576C176.415 18.053 175.784 19.5442 175.967 21.3116C176.077 22.4162 176.425 23.4932 176.882 24.5702V24.5794Z" fill="#B7A679"/>
    <path d="M152.565 15.2074C152.345 15.7413 151.75 15.9898 151.558 16.6617V25.5624C151.182 25.8109 150.789 25.6636 150.413 25.6912C150.056 25.7188 149.699 25.6912 149.452 25.6912C149.186 25.5531 149.269 25.3599 149.159 25.2586L148.829 25.6636C147.813 25.7372 146.779 25.7741 145.79 25.4703C143.95 24.9088 142.714 23.6755 142.192 21.8162C141.359 18.8616 143.043 16.2659 145.533 15.3271C145.973 15.1614 146.44 15.051 146.916 15.051C148.674 15.0418 150.432 15.051 152.189 15.051C152.299 15.051 152.418 15.051 152.574 15.2074H152.565ZM149.186 16.1647C147.612 15.7689 145.753 16.7262 144.993 18.0056C143.94 19.7728 144.096 21.5032 145.158 22.9483C146.129 24.2645 147.529 24.8076 149.186 24.6235V16.1647Z" fill="#B7A679"/>
    <path d="M31.8682 10.0649C31.6118 10.5435 31.2365 10.8841 30.916 11.2799V24.1578C31.09 24.7378 31.6851 24.9955 31.8956 25.5202C31.328 25.7227 28.4166 25.7503 27.5652 25.5754C27.6384 24.9587 28.2244 24.7009 28.5173 24.2039V11.3259C28.3068 10.8013 27.5927 10.5987 27.5469 9.93598C28.0321 9.80711 30.6597 9.73347 31.4836 9.81632C31.6301 9.82552 31.7583 9.87155 31.859 10.0556L31.8682 10.0649Z" fill="#B7A679"/>
    <path d="M66.6864 25.6793C65.1941 25.6793 63.7842 25.6793 62.3376 25.6793C62.3102 25.2282 62.6215 25.081 62.8046 24.8692C62.9877 24.6575 63.1616 24.4366 63.2806 24.1881V11.2641C62.951 10.8867 62.5848 10.5369 62.3468 10.0859C62.3834 9.88336 62.5391 9.82812 62.713 9.82812C63.9398 9.82812 65.1758 9.82812 66.4026 9.82812C66.4758 9.82812 66.5491 9.89256 66.6498 9.93859C66.5857 10.5737 65.9448 10.7855 65.6793 11.3286V24.2065C65.954 24.6299 66.4484 24.9521 66.6864 25.6793Z" fill="#B7A679"/>
    <path d="M35.4091 17.5277C35.2351 16.9846 35.2076 16.147 35.345 15.107C35.9858 14.8953 36.645 14.702 37.35 14.6928C38.4578 14.6836 39.5747 14.6007 40.655 15.0057C42.6051 15.7328 43.7587 17.362 43.8502 19.3133C43.9052 20.602 43.9052 21.8998 43.8594 23.1884C43.8411 23.8787 43.9692 24.4586 44.5186 24.9096C44.7017 25.0569 44.9306 25.2318 44.8207 25.5815C44.3355 25.7748 43.8045 25.646 43.2826 25.6644C42.7791 25.692 42.2755 25.6644 41.8544 25.6644C41.5797 25.5631 41.6621 25.3422 41.5431 25.2041L41.0945 25.6275H33.9717C33.8801 25.0016 33.8618 24.4126 33.99 23.7775C34.5851 23.9247 34.9696 24.3758 35.4823 24.6151H41.4882C41.6896 24.4494 41.6255 24.2377 41.6255 24.0536C41.6255 22.765 41.6804 21.4672 41.6163 20.1786C41.5523 19.0096 41.4424 17.8407 40.7191 16.8282C39.7304 15.4567 37.9725 15.1806 36.6359 16.3035C36.3154 16.5704 36.0133 16.865 35.7936 17.2332C35.7112 17.3712 35.6288 17.5277 35.4274 17.5185L35.4091 17.5277Z" fill="#B7A679"/>
    <path d="M165.237 29.7364C165.402 29.7364 165.512 29.7364 165.622 29.7364C166.922 29.8284 167.727 29.2025 168.185 28.015C168.387 27.4903 168.515 26.9564 168.515 26.3857C168.515 22.9614 168.515 19.5371 168.524 16.1128C168.524 15.8091 168.524 15.4961 168.524 15.2015C169.11 15.0082 171.032 14.9806 171.856 15.1555C171.829 15.4961 171.536 15.6526 171.344 15.8735C171.161 16.0852 170.987 16.2969 170.868 16.5915C170.868 19.6752 170.895 22.7865 170.859 25.907C170.84 27.1129 170.584 28.2727 169.806 29.2761C169.082 30.215 168.121 30.6016 167.013 30.7397C166.656 30.7857 166.29 30.7673 165.924 30.7397C165.31 30.7029 165.191 30.5372 165.246 29.7272L165.237 29.7364Z" fill="#B7A679"/>
    <path d="M160.77 25.567C160.779 25.1159 161.108 24.9411 161.328 24.7017C161.603 24.398 161.786 24.0942 161.777 23.6615C161.768 19.5929 161.777 15.5242 161.777 11.4832C161.484 10.9309 160.934 10.5719 160.742 9.96438C161.411 9.78027 164.12 9.76186 164.99 9.91835C164.999 10.6087 164.267 10.7836 164.029 11.3635V24.1678C164.258 24.6925 164.963 24.895 164.999 25.567C164.313 25.7143 161.539 25.7235 160.779 25.567H160.77Z" fill="#B7A679"/>
    <path d="M155.494 15.0859H158.781C158.607 15.6843 158.076 15.9236 157.765 16.4483V17.1939C157.765 19.7529 157.747 22.3119 157.774 24.8709C157.774 25.6626 157.747 26.4542 157.582 27.209C157.152 29.2618 155.916 30.6609 153.553 30.7438C153.306 30.7438 153.05 30.753 152.803 30.7438C152.199 30.6978 152.07 30.5229 152.144 29.7865C152.4 29.6668 152.684 29.7496 152.958 29.7404C153.746 29.7036 154.35 29.3446 154.744 28.6726C155.174 27.9362 155.412 27.1446 155.412 26.2793C155.403 22.8826 155.412 19.4768 155.412 16.0801C155.412 15.7763 155.357 15.4633 155.485 15.1043L155.494 15.0859Z" fill="#B7A679"/>
    <path d="M132.906 25.5663C132.915 25.1153 133.245 24.9404 133.465 24.701C133.739 24.3973 133.913 24.0935 133.913 23.6609C133.904 19.5922 133.913 15.5236 133.913 11.547C133.703 10.8658 133.016 10.6081 132.915 9.95449C133.538 9.7888 136.257 9.76119 137.099 9.90847C137.246 10.2951 136.907 10.4424 136.724 10.6633C136.55 10.875 136.349 11.0775 136.166 11.28V24.1671C136.394 24.701 137.109 24.8944 137.136 25.5663C136.44 25.7136 133.666 25.7228 132.915 25.5663H132.906Z" fill="#B7A679"/>
    <path d="M19.1163 30.6366C18.9332 30.3512 18.9698 30.1027 19.0065 29.8542C19.1896 29.6517 19.4276 29.7345 19.6382 29.7437C20.6178 29.7621 21.2678 29.265 21.7164 28.455C22.165 27.6542 22.3115 26.7797 22.3207 25.8776C22.3298 22.5361 22.3207 19.2039 22.3207 15.8624V15.1997C22.8975 15.0156 24.4722 14.988 25.4701 15.126C25.464 15.347 25.1588 15.8226 24.5546 16.5528C24.5546 17.9704 24.5546 19.4248 24.5546 20.8792C24.5546 22.7571 24.5729 24.6349 24.5271 26.5219C24.4996 27.7002 24.0968 28.7588 23.2362 29.6148C22.5129 30.342 21.6066 30.6826 20.6178 30.7471C20.1051 30.7839 19.5649 30.8483 19.1072 30.6458L19.1163 30.6366Z" fill="#B7A679"/>
    <path d="M52.2703 29.9887C52.9753 30.1268 53.6527 30.2556 54.4126 30.2004L54.1746 30.7066H49.9998C49.8533 30.587 49.8716 30.4673 49.8716 30.3569C49.8716 30.2188 49.835 30.0715 49.9723 29.9335C50.2928 29.7586 50.4942 30.1452 50.8329 30.1452C50.8879 29.9151 50.6956 29.7494 50.6315 29.5653C50.2287 28.4424 50.8421 27.3563 52.0231 27.1906C52.5724 27.1169 53.1217 27.1446 53.6894 27.2366C53.8084 27.6324 53.8267 27.9729 53.6528 28.3963C53.1767 28.0006 52.7647 27.4391 52.0689 27.8717C51.6477 28.1386 51.547 28.424 51.6111 29.3168C51.6935 29.418 51.7942 29.5561 51.9132 29.6758C52.0323 29.7954 52.1696 29.8967 52.2703 29.9795V29.9887Z" fill="#B7A679"/>
    <path d="M80.1086 10.2266L81.6742 11.9938C81.2714 12.5277 80.7129 13.0431 80.0995 13.5677C79.5136 13.0431 78.9917 12.5277 78.5156 11.957C78.6163 11.8005 78.6621 11.6993 78.7354 11.6256C79.1657 11.1838 79.5959 10.7604 80.1178 10.2358L80.1086 10.2266Z" fill="#B7A679"/>
    <path d="M169.676 13.5985C169.099 13.0278 168.541 12.5676 168.102 11.9601C168.541 11.2974 169.118 10.8556 169.649 10.3125C170.281 10.7635 170.775 11.3066 171.297 11.9509C170.83 12.5676 170.281 13.0646 169.676 13.6077V13.5985Z" fill="#B7A679"/>
    <path d="M5.24548 13.5856C4.63208 13.0886 4.12854 12.5823 3.625 11.9564C4.01868 11.2845 4.65955 10.8703 5.15393 10.2812C5.7948 10.7691 6.3075 11.3029 6.81104 11.9288C6.35327 12.5731 5.77649 13.0334 5.23633 13.5856H5.24548Z" fill="#B7A679"/>
    <path d="M146.897 13.5856C146.283 13.061 145.789 12.5455 145.258 11.9564C145.734 11.3029 146.311 10.8427 146.842 10.2812C147.473 10.7875 147.986 11.3121 148.471 11.9012C148.032 12.5823 147.464 13.0242 146.887 13.5856H146.897Z" fill="#B7A679"/>
    <path d="M150.365 10.2826C150.979 10.8073 151.51 11.3135 151.986 11.9118C151.528 12.5745 150.969 13.0347 150.42 13.5594C149.797 13.0992 149.294 12.5653 148.781 11.9118C149.257 11.2951 149.816 10.8165 150.365 10.2734V10.2826Z" fill="#B7A679"/>
    <path d="M111.615 13.5906C111.047 13.0292 110.48 12.569 110.031 11.9062C110.516 11.3172 111.038 10.7925 111.633 10.3047C112.21 10.8017 112.714 11.308 113.236 11.9247C112.76 12.5598 112.192 13.0568 111.624 13.5906H111.615Z" fill="#B7A679"/>
    <path d="M11.3828 29.1281C11.8314 28.5482 12.3075 28.0604 12.9117 27.6094C13.6075 27.9683 14.0287 28.5758 14.5505 29.1189C14.1111 29.8 13.5343 30.2418 13.0399 30.7481C12.4998 30.4627 11.8955 29.8829 11.3828 29.1373V29.1281Z" fill="#B7A679"/>
    <path d="M15.0013 28.9114L16.3838 27.5859C17.0613 28.037 17.5099 28.6076 18.0409 29.1599C17.6014 29.795 17.0521 30.2828 16.4753 30.7799C15.8619 30.4669 15.4957 29.9331 15.0471 29.482C14.919 29.3532 14.9373 29.1783 15.0105 28.9022L15.0013 28.9114Z" fill="#B7A679"/>
    <path d="M123.573 11.926C122.969 12.5335 122.502 13.0858 121.898 13.5552C121.321 13.095 120.836 12.5704 120.305 11.9813C120.799 11.3922 121.358 10.9044 121.925 10.2969C122.484 10.8491 123.005 11.3646 123.564 11.9168L123.573 11.926Z" fill="#B7A679"/>
    <path d="M76.6908 13.5971L75.0703 11.9035C75.5739 11.388 76.0866 10.8634 76.6176 10.3203C77.2493 10.8173 77.7253 11.388 78.2838 11.9403C77.8352 12.5662 77.2859 13.0264 76.6908 13.5971Z" fill="#B7A679"/>
    <path d="M8.59546 13.5036C8.07361 12.9882 7.58838 12.5096 7.03906 11.9665C7.52429 11.3866 8.08276 10.8988 8.63208 10.3281C9.2638 10.7975 9.73072 11.3774 10.28 11.9113C9.69409 12.4635 9.15393 12.9698 8.59546 13.5036Z" fill="#B7A679"/>
    <path d="M120.026 11.9375C119.477 12.4898 118.982 12.9868 118.433 13.5391C117.875 13.0788 117.371 12.5082 116.812 11.9375C117.362 11.3852 117.875 10.8698 118.406 10.3359C119.001 10.8238 119.513 11.3668 120.017 11.9283L120.026 11.9375Z" fill="#B7A679"/>
    <path d="M86.1278 30.7997L84.6172 29.1521C85.0292 28.609 85.551 28.0936 86.2011 27.5781C86.7687 28.0568 87.2722 28.5446 87.73 29.1245C87.2539 29.778 86.7137 30.2566 86.1278 30.7997Z" fill="#B7A679"/>
    <path d="M89.6488 27.6328C90.2256 28.1022 90.6925 28.6177 91.1961 29.1607C90.8115 29.7958 90.2164 30.2192 89.6671 30.8083C89.0812 30.3205 88.5685 29.7958 88.1016 29.2436C88.4037 28.6545 88.953 28.0746 89.6488 27.642V27.6328Z" fill="#B7A679"/>
    </svg>
    